<svg width="9" height="14" viewBox="0 0 9 14" fill="none" xmlns="http://www.w3.org/2000/svg">
<path d="M0.933567 7.53202L7.00192 13.6003C7.14227 13.7407 7.32963 13.8181 7.52941 13.8181C7.72919 13.8181 7.91655 13.7407 8.0569 13.6003L8.50379 13.1535C8.79459 12.8624 8.79459 12.3892 8.50379 12.0985L3.40805 7.00276L8.50945 1.90136C8.6498 1.7609 8.7273 1.57365 8.7273 1.37398C8.7273 1.17409 8.6498 0.986844 8.50945 0.846269L8.06256 0.399598C7.92209 0.259133 7.73484 0.181751 7.53507 0.181751C7.33529 0.181751 7.14793 0.259133 7.00758 0.399598L0.933567 6.47339C0.792881 6.61429 0.715609 6.80243 0.716052 7.00243C0.715609 7.2032 0.79288 7.39123 0.933567 7.53202Z" fill="#383838"/>
</svg>
