<svg width="14" height="9" viewBox="0 0 14 9" fill="none" xmlns="http://www.w3.org/2000/svg">
<path d="M6.46774 0.217501L0.39949 6.28586C0.259025 6.42621 0.181642 6.61357 0.181642 6.81335C0.181642 7.01312 0.259024 7.20048 0.399489 7.34084L0.84627 7.78773C1.1374 8.07852 1.61056 8.07852 1.90125 7.78773L6.997 2.69198L12.0984 7.79338C12.2389 7.93374 12.4261 8.01123 12.6258 8.01123C12.8257 8.01123 13.0129 7.93374 13.1535 7.79338L13.6002 7.34649C13.7406 7.20603 13.818 7.01878 13.818 6.819C13.818 6.61922 13.7406 6.43186 13.6002 6.29151L7.52638 0.217501C7.38547 0.0768148 7.19733 -0.000456649 6.99734 -1.3195e-05C6.79656 -0.000456658 6.60854 0.0768148 6.46774 0.217501Z" fill="#383838"/>
</svg>
