<svg width="60" height="52" viewBox="0 0 60 52" fill="none" xmlns="http://www.w3.org/2000/svg">
<path d="M1.17188 19.4724C3.44883 18.0907 5.72461 16.7091 8.00156 15.3263V23.6185C5.72461 22.2357 3.44883 20.854 1.17188 19.4724Z" fill="#FFD637"/>
<path d="M58.828 19.4725C56.5511 20.8413 54.2753 22.2088 51.9984 23.5776V15.3674C54.2753 16.7362 56.5511 18.1038 58.828 19.4725Z" fill="#FFD637"/>
<path d="M8.00137 2.05817H51.9991V34.707H8.00137V2.05817Z" fill="#FAF7F5"/>
<path d="M58.8281 19.4724V49.9411H1.17188V19.4724C10.7344 25.2778 20.2957 31.0821 29.8582 36.8864C39.5145 31.0821 49.1719 25.2778 58.8281 19.4724Z" fill="#FFD637"/>
<path d="M1.17188 49.9415C10.7339 44.1367 20.2959 38.332 29.8579 32.5273C39.5147 38.332 49.1714 44.1367 58.8281 49.9415C39.6094 49.9415 20.3906 49.9415 1.17188 49.9415Z" fill="#FFD637"/>
<path d="M59.4311 18.4696L59.4319 18.4682L53.1702 14.7045V2.05847C53.1702 1.41136 52.6454 0.886597 51.9983 0.886597H8.00156C7.35445 0.886597 6.82969 1.41136 6.82969 2.05847V14.667C4.74094 15.9353 2.65277 17.2031 0.563906 18.4707L0.564961 18.4723C0.215742 18.6843 0 19.0621 0 19.4725V49.9413C0 50.5884 0.524648 51.1132 1.17188 51.1132H25.0781C25.7254 51.1132 26.25 50.5884 26.25 49.9413C26.25 49.2942 25.7254 48.7694 25.0781 48.7694H5.36086L29.8608 33.8964L54.6036 48.7694H34.9219C34.2748 48.7694 33.75 49.2942 33.75 49.9413C33.75 50.5884 34.2748 51.1132 34.9219 51.1132H58.8281C59.4752 51.1132 60 50.5884 60 49.9413V19.4725C60 19.0606 59.7827 18.6811 59.4311 18.4696V18.4696ZM52.6017 24.5821C54.2869 23.5701 55.9714 22.5574 57.6562 21.5444V47.8696L35.7585 34.707C41.3728 31.3326 46.988 27.9574 52.6017 24.5821V24.5821ZM56.5536 19.4727C55.4259 20.1507 54.2981 20.8284 53.1703 21.5061V17.439L56.5536 19.4727ZM7.39359 24.6205L24.0093 34.7069L2.34375 47.8592V21.5548L3.91512 22.5087C5.07457 23.2128 6.23391 23.9168 7.39359 24.6205V24.6205ZM6.82969 21.5363C6.26367 21.1926 5.69754 20.8491 5.13164 20.5054L3.43008 19.4725C4.56328 18.7848 5.6966 18.0968 6.82969 17.4087V21.5363ZM29.2498 31.5256L26.2677 33.3359L9.17344 22.9591V3.23035H50.8266V22.9148C45.0459 26.3902 39.2645 29.8654 33.4839 33.3397L30.4617 31.523C30.0885 31.2987 29.622 31.2998 29.2498 31.5256V31.5256Z" fill="#383838"/>
<path d="M30 51.1132C30.6472 51.1132 31.1719 50.5886 31.1719 49.9413C31.1719 49.2941 30.6472 48.7695 30 48.7695C29.3528 48.7695 28.8281 49.2941 28.8281 49.9413C28.8281 50.5886 29.3528 51.1132 30 51.1132Z" fill="#383838"/>
<path d="M40.9907 24.5584C40.9907 23.9113 40.4659 23.3865 39.8188 23.3865H19.897C19.2499 23.3865 18.7251 23.9113 18.7251 24.5584C18.7251 25.2055 19.2499 25.7303 19.897 25.7303H39.8188C40.4661 25.7303 40.9907 25.2056 40.9907 24.5584Z" fill="#383838"/>
<path d="M45.6782 17.3318C45.6782 16.6846 45.1535 16.1599 44.5063 16.1599H15.2095C14.5624 16.1599 14.0376 16.6846 14.0376 17.3318C14.0376 17.9789 14.5624 18.5037 15.2095 18.5037H44.5063C45.1536 18.5037 45.6782 17.979 45.6782 17.3318Z" fill="#383838"/>
<path d="M19.897 11.277H39.8188C40.4659 11.277 40.9907 10.7524 40.9907 10.1052C40.9907 9.45805 40.4659 8.93329 39.8188 8.93329H19.897C19.2499 8.93329 18.7251 9.45805 18.7251 10.1052C18.7251 10.7524 19.2499 11.277 19.897 11.277V11.277Z" fill="#383838"/>
</svg>
