<svg width="13" height="13" viewBox="0 0 13 13" fill="none" xmlns="http://www.w3.org/2000/svg">
<path d="M7.04164 3.25001C7.04164 3.54914 6.79914 3.79164 6.50001 3.79164C6.20087 3.79164 5.95837 3.54914 5.95837 3.25001C5.95837 2.95087 6.20087 2.70837 6.50001 2.70837C6.79914 2.70837 7.04164 2.95087 7.04164 3.25001Z" fill="#383838"/>
<path d="M6.50001 10.2916C6.27576 10.2916 6.09376 10.1096 6.09376 9.88538V5.6875H5.55212C5.32787 5.6875 5.14587 5.5055 5.14587 5.28125C5.14587 5.057 5.32787 4.875 5.55212 4.875H6.50001C6.72426 4.875 6.90626 5.057 6.90626 5.28125V9.88538C6.90626 10.1096 6.72426 10.2916 6.50001 10.2916Z" fill="#383838"/>
<path d="M6.5 13C2.91576 13 0 10.0842 0 6.5C0 2.91576 2.91576 0 6.5 0C10.0842 0 13 2.91576 13 6.5C13 10.0842 10.0842 13 6.5 13ZM6.5 0.8125C3.36376 0.8125 0.8125 3.36376 0.8125 6.5C0.8125 9.63624 3.36376 12.1875 6.5 12.1875C9.63624 12.1875 12.1875 9.63624 12.1875 6.5C12.1875 3.36376 9.63624 0.8125 6.5 0.8125Z" fill="#383838"/>
<path d="M7.71875 10.2916H5.28125C5.057 10.2916 4.875 10.1096 4.875 9.88538C4.875 9.66113 5.057 9.47913 5.28125 9.47913H7.71875C7.943 9.47913 8.125 9.66113 8.125 9.88538C8.125 10.1096 7.943 10.2916 7.71875 10.2916Z" fill="#383838"/>
</svg>
