<svg width="25" height="15" viewBox="0 0 25 15" fill="none" xmlns="http://www.w3.org/2000/svg">
<path d="M24.7772 13.0906C24.71 12.9781 24.2943 12.0749 22.2942 10.2185C20.2003 8.27465 20.4815 8.5903 23.0036 5.22911C24.5397 3.18208 25.1538 1.93199 24.9616 1.39757C24.7787 0.88816 23.649 1.02254 23.649 1.02254L19.8924 1.04442C19.8924 1.04442 19.6143 1.00692 19.4065 1.13037C19.2049 1.25225 19.0752 1.53352 19.0752 1.53352C19.0752 1.53352 18.4798 3.11801 17.686 4.46499C16.0125 7.30739 15.3421 7.4574 15.0686 7.28083C14.4327 6.86986 14.592 5.62758 14.592 4.74626C14.592 1.99137 15.0093 0.842844 13.7779 0.545946C13.3685 0.447502 13.0685 0.381872 12.0231 0.370933C10.6824 0.35687 9.54636 0.375621 8.90413 0.689707C8.47597 0.899098 8.14626 1.36632 8.34784 1.39289C8.59629 1.4257 9.15883 1.54446 9.45729 1.95074C9.84326 2.47422 9.8292 3.65243 9.8292 3.65243C9.8292 3.65243 10.0511 6.89486 9.31197 7.29802C8.80412 7.5746 8.10876 7.01049 6.61646 4.43061C5.85234 3.1102 5.27417 1.64915 5.27417 1.64915C5.27417 1.64915 5.16323 1.37726 4.96478 1.23194C4.72413 1.05536 4.38661 0.999106 4.38661 0.999106L0.814471 1.02098C0.814471 1.02098 0.278494 1.03661 0.0816048 1.26944C-0.093408 1.47727 0.0675413 1.90542 0.0675413 1.90542C0.0675413 1.90542 2.86462 8.4481 6.03048 11.7468C8.93538 14.7705 12.2325 14.572 12.2325 14.572H13.7264C13.7264 14.572 14.178 14.522 14.4077 14.2735C14.6202 14.0454 14.6124 13.6172 14.6124 13.6172C14.6124 13.6172 14.5827 11.6124 15.514 11.3171C16.4312 11.0264 17.6095 13.2547 18.858 14.1126C19.8018 14.7611 20.519 14.6189 20.519 14.6189L23.8584 14.572C23.8584 14.572 25.6054 14.4642 24.7772 13.0906Z" fill="#B8B8B8"/>
</svg>
