<svg width="60" height="52" fill="none" xmlns="http://www.w3.org/2000/svg"><path d="M1.172 19.472c2.277-1.381 4.553-2.763 6.83-4.146v8.293l-6.83-4.147zm57.656.001l-6.83 4.105v-8.21l6.83 4.104z" fill="#FFD637"/><path d="M8.001 2.058H52v32.649H8.001V2.058z" fill="#FAF7F5"/><path d="M58.828 19.472v30.47H1.172v-30.47c9.562 5.806 19.124 11.61 28.686 17.414 9.656-5.804 19.314-11.608 28.97-17.414z" fill="#FFD637"/><path d="M1.172 49.941l28.686-17.414 28.97 17.414H1.172z" fill="#FFD637"/><path d="M59.431 18.47v-.002l-6.26-3.764V2.058c0-.647-.526-1.171-1.173-1.171H8.002A1.17 1.17 0 006.83 2.058v12.609L.564 18.471l.001.001a1.17 1.17 0 00-.565 1v30.47c0 .646.525 1.171 1.172 1.171h23.906a1.172 1.172 0 000-2.344H5.361l24.5-14.873L54.604 48.77H34.922a1.172 1.172 0 000 2.344h23.906c.647 0 1.172-.525 1.172-1.172v-30.47a1.17 1.17 0 00-.569-1.002zm-6.83 6.112c1.686-1.012 3.37-2.025 5.055-3.038V47.87L35.758 34.707c5.615-3.374 11.23-6.75 16.844-10.125zm3.953-5.11l-3.384 2.034V17.44l3.384 2.034zM7.394 24.62l16.615 10.087L2.344 47.859V21.555l1.571.954 3.479 2.111zm-.564-3.084l-1.698-1.03-1.702-1.034 3.4-2.063v4.127zm22.42 9.99l-2.982 1.81L9.173 22.959V3.23h41.654v19.685L33.484 33.34l-3.022-1.817a1.172 1.172 0 00-1.212.003z" fill="#383838"/><path d="M30 51.113a1.172 1.172 0 100-2.344 1.172 1.172 0 000 2.344zm10.99-26.555a1.17 1.17 0 00-1.171-1.171H19.897a1.172 1.172 0 000 2.343h19.922c.647 0 1.172-.524 1.172-1.172zm4.688-7.226c0-.647-.524-1.172-1.172-1.172H15.21a1.172 1.172 0 000 2.344h29.297c.648 0 1.172-.525 1.172-1.172zm-25.781-6.055h19.922a1.172 1.172 0 000-2.344H19.897a1.172 1.172 0 000 2.344z" fill="#383838"/></svg>