<svg width="13" height="13" fill="none" xmlns="http://www.w3.org/2000/svg"><path d="M7.042 3.25a.542.542 0 11-1.084 0 .542.542 0 011.084 0zM6.5 10.292a.406.406 0 01-.406-.407V5.688h-.542a.406.406 0 010-.813H6.5c.224 0 .406.182.406.406v4.604a.406.406 0 01-.406.407z" fill="#383838"/><path d="M6.5 13A6.507 6.507 0 010 6.5C0 2.916 2.916 0 6.5 0S13 2.916 13 6.5 10.084 13 6.5 13zM6.5.812A5.694 5.694 0 00.812 6.5 5.694 5.694 0 006.5 12.188 5.694 5.694 0 0012.188 6.5 5.694 5.694 0 006.5.812z" fill="#383838"/><path d="M7.719 10.292H5.28a.406.406 0 010-.813h2.44a.406.406 0 010 .813z" fill="#383838"/></svg>