<svg width="20" height="20" fill="none" xmlns="http://www.w3.org/2000/svg"><path d="M17.07 0H2.93A2.93 2.93 0 000 2.93v14.14A2.93 2.93 0 002.93 20h14.14A2.93 2.93 0 0020 17.07V2.93A2.93 2.93 0 0017.07 0zM10 15.313a5.281 5.281 0 01-5.273-5.274A5.281 5.281 0 0110 4.766a5.281 5.281 0 015.273 5.273A5.281 5.281 0 0110 15.313zm6.445-10.547a1.175 1.175 0 01-1.172-1.172c0-.645.528-1.172 1.172-1.172.645 0 1.172.527 1.172 1.172 0 .644-.527 1.172-1.172 1.172z" fill="#B8B8B8"/><circle cx="10" cy="10" r="3" fill="#C4C4C4"/></svg>