<svg width="43" height="44" fill="none" xmlns="http://www.w3.org/2000/svg"><path d="M35.685 0H7.137A7.042 7.042 0 002.09 2.148 7.437 7.437 0 000 7.333v29.334c0 1.945.752 3.81 2.09 5.185A7.041 7.041 0 007.137 44h28.548a7.041 7.041 0 005.047-2.148 7.437 7.437 0 002.09-5.185V7.333c0-1.945-.751-3.81-2.09-5.185A7.041 7.041 0 0035.685 0zm-18.1 29.407L11.877 19.14H18.3l5.71 10.267h-6.423zm13.818 7.26l-9.992-17.6h6.424a4.745 4.745 0 002.769-.822 3.05 3.05 0 00.843-2.112c0-.79-.303-1.549-.843-2.112a2.847 2.847 0 00-.947-.623 2.787 2.787 0 00-1.109-.198H8.565L4.996 7.333h23.552a8.403 8.403 0 014.755 1.486 8.754 8.754 0 013.15 3.948 9.024 9.024 0 01.488 5.081 8.877 8.877 0 01-2.34 4.504 8.35 8.35 0 01-3.64 2.215l6.866 12.1h-6.424z" fill="#383838"/></svg>