<svg width="25" height="15" fill="none" xmlns="http://www.w3.org/2000/svg"><path d="M24.777 13.09c-.067-.112-.483-1.015-2.483-2.871-2.094-1.944-1.813-1.629.71-4.99 1.536-2.047 2.15-3.297 1.958-3.831-.183-.51-1.313-.375-1.313-.375l-3.757.021s-.278-.037-.485.086c-.202.122-.332.404-.332.404s-.595 1.584-1.389 2.931c-1.674 2.842-2.344 2.992-2.617 2.816-.636-.411-.477-1.653-.477-2.535 0-2.755.417-3.903-.814-4.2-.41-.098-.71-.164-1.755-.175-1.34-.014-2.477.005-3.119.319-.428.21-.758.676-.556.703.248.033.81.151 1.11.558.385.523.371 1.701.371 1.701s.222 3.243-.517 3.646c-.508.277-1.203-.288-2.696-2.867-.764-1.32-1.342-2.782-1.342-2.782s-.11-.272-.31-.417a1.558 1.558 0 00-.577-.233l-3.573.022s-.536.016-.732.248c-.175.208-.014.636-.014.636s2.797 6.543 5.962 9.842c2.905 3.024 6.202 2.825 6.202 2.825h1.494s.452-.05.682-.298c.212-.229.204-.657.204-.657s-.03-2.005.902-2.3c.917-.29 2.096 1.938 3.344 2.796.944.648 1.661.506 1.661.506l3.34-.047s1.746-.108.918-1.481z" fill="#B8B8B8"/></svg>